<mxfile host="app.diagrams.net" agent="Mozilla/5.0 (Macintosh; Intel Mac OS X 10_15_7) AppleWebKit/537.36 (KHTML, like Gecko) Chrome/136.0.0.0 Safari/537.36 Edg/136.0.0.0" version="27.0.5">
  <diagram name="Page-1" id="7r1xlZjh8pKzuCY9gDhZ">
    <mxGraphModel dx="2060" dy="1828" grid="1" gridSize="10" guides="1" tooltips="1" connect="1" arrows="1" fold="1" page="1" pageScale="1" pageWidth="850" pageHeight="1100" math="0" shadow="0">
      <root>
        <mxCell id="0" />
        <mxCell id="1" parent="0" />
        <mxCell id="SSxGndYgmpB247sRVXLQ-1" value="" style="rounded=0;whiteSpace=wrap;html=1;" parent="1" vertex="1">
          <mxGeometry x="360" y="180" width="210" height="140" as="geometry" />
        </mxCell>
        <mxCell id="SSxGndYgmpB247sRVXLQ-2" value="&lt;font style=&quot;font-size: 14px;&quot;&gt;int id;&lt;/font&gt;&lt;div&gt;&lt;font size=&quot;3&quot;&gt;int vehicleNo;&lt;/font&gt;&lt;/div&gt;&lt;div&gt;&lt;font size=&quot;3&quot;&gt;VehicleType type;&lt;/font&gt;&lt;/div&gt;&lt;div&gt;&lt;font size=&quot;3&quot;&gt;Status status;&lt;/font&gt;&lt;/div&gt;&lt;div&gt;&lt;font size=&quot;3&quot;&gt;int kmDriven;&lt;/font&gt;&lt;/div&gt;" style="text;html=1;align=center;verticalAlign=middle;whiteSpace=wrap;rounded=0;" parent="1" vertex="1">
          <mxGeometry x="385" y="170" width="150" height="160" as="geometry" />
        </mxCell>
        <mxCell id="SSxGndYgmpB247sRVXLQ-3" value="&lt;font style=&quot;font-size: 14px;&quot;&gt;Vehicle&lt;/font&gt;" style="text;html=1;align=center;verticalAlign=middle;whiteSpace=wrap;rounded=0;" parent="1" vertex="1">
          <mxGeometry x="430" y="140" width="60" height="30" as="geometry" />
        </mxCell>
        <mxCell id="SSxGndYgmpB247sRVXLQ-4" value="&lt;font style=&quot;font-size: 14px;&quot;&gt;enum Status {&lt;/font&gt;&lt;div&gt;&lt;font size=&quot;3&quot;&gt;Active,&lt;/font&gt;&lt;/div&gt;&lt;div&gt;&lt;font size=&quot;3&quot;&gt;InActive&lt;/font&gt;&lt;/div&gt;&lt;div&gt;&lt;font size=&quot;3&quot;&gt;}&lt;/font&gt;&lt;/div&gt;" style="text;html=1;align=center;verticalAlign=middle;whiteSpace=wrap;rounded=0;" parent="1" vertex="1">
          <mxGeometry x="640" y="170" width="120" height="90" as="geometry" />
        </mxCell>
        <mxCell id="SSxGndYgmpB247sRVXLQ-5" value="&lt;font style=&quot;font-size: 14px;&quot;&gt;enum VehicleType {&lt;/font&gt;&lt;div&gt;&lt;font size=&quot;3&quot;&gt;CAR,&lt;/font&gt;&lt;/div&gt;&lt;div&gt;&lt;font size=&quot;3&quot;&gt;}&lt;/font&gt;&lt;/div&gt;" style="text;html=1;align=center;verticalAlign=middle;whiteSpace=wrap;rounded=0;" parent="1" vertex="1">
          <mxGeometry x="640" y="280" width="140" height="90" as="geometry" />
        </mxCell>
        <mxCell id="SSxGndYgmpB247sRVXLQ-6" value="&lt;font style=&quot;font-size: 14px;&quot;&gt;CAR&lt;/font&gt;" style="rounded=0;whiteSpace=wrap;html=1;" parent="1" vertex="1">
          <mxGeometry x="320" y="400" width="120" height="60" as="geometry" />
        </mxCell>
        <mxCell id="SSxGndYgmpB247sRVXLQ-7" value="&lt;span style=&quot;font-size: 14px;&quot;&gt;BIKE&lt;/span&gt;" style="rounded=0;whiteSpace=wrap;html=1;" parent="1" vertex="1">
          <mxGeometry x="490" y="400" width="120" height="60" as="geometry" />
        </mxCell>
        <mxCell id="SSxGndYgmpB247sRVXLQ-9" value="" style="shape=flexArrow;endArrow=classic;html=1;rounded=0;" parent="1" edge="1">
          <mxGeometry width="50" height="50" relative="1" as="geometry">
            <mxPoint x="385" y="380" as="sourcePoint" />
            <mxPoint x="435" y="330" as="targetPoint" />
          </mxGeometry>
        </mxCell>
        <mxCell id="SSxGndYgmpB247sRVXLQ-10" value="" style="shape=flexArrow;endArrow=classic;html=1;rounded=0;entryX=0.64;entryY=1.025;entryDx=0;entryDy=0;entryPerimeter=0;" parent="1" target="SSxGndYgmpB247sRVXLQ-2" edge="1">
          <mxGeometry width="50" height="50" relative="1" as="geometry">
            <mxPoint x="540" y="380" as="sourcePoint" />
            <mxPoint x="460" y="360" as="targetPoint" />
          </mxGeometry>
        </mxCell>
        <mxCell id="SSxGndYgmpB247sRVXLQ-11" value="&lt;span style=&quot;font-size: 14px;&quot;&gt;// CRUD Operations&lt;/span&gt;" style="rounded=0;whiteSpace=wrap;html=1;" parent="1" vertex="1">
          <mxGeometry x="-20" y="180" width="160" height="150" as="geometry" />
        </mxCell>
        <mxCell id="SSxGndYgmpB247sRVXLQ-12" value="&lt;font style=&quot;font-size: 14px;&quot;&gt;List&amp;lt;Vehcile&amp;gt; list;&lt;/font&gt;" style="text;html=1;align=center;verticalAlign=middle;whiteSpace=wrap;rounded=0;" parent="1" vertex="1">
          <mxGeometry y="190" width="120" height="30" as="geometry" />
        </mxCell>
        <mxCell id="SSxGndYgmpB247sRVXLQ-13" value="" style="endArrow=none;html=1;rounded=0;exitX=0;exitY=0.25;exitDx=0;exitDy=0;entryX=1;entryY=0.25;entryDx=0;entryDy=0;" parent="1" source="SSxGndYgmpB247sRVXLQ-11" target="SSxGndYgmpB247sRVXLQ-11" edge="1">
          <mxGeometry width="50" height="50" relative="1" as="geometry">
            <mxPoint x="450" y="410" as="sourcePoint" />
            <mxPoint x="500" y="360" as="targetPoint" />
          </mxGeometry>
        </mxCell>
        <mxCell id="SSxGndYgmpB247sRVXLQ-14" value="&lt;font style=&quot;font-size: 14px;&quot;&gt;VehcileInventoryManagement&lt;/font&gt;&lt;div&gt;&lt;font style=&quot;font-size: 14px;&quot;&gt;(IVM)&lt;/font&gt;&lt;/div&gt;" style="text;html=1;align=center;verticalAlign=middle;whiteSpace=wrap;rounded=0;" parent="1" vertex="1">
          <mxGeometry x="-30" y="140" width="190" height="30" as="geometry" />
        </mxCell>
        <mxCell id="SSxGndYgmpB247sRVXLQ-15" value="" style="endArrow=classic;html=1;rounded=0;" parent="1" edge="1">
          <mxGeometry width="50" height="50" relative="1" as="geometry">
            <mxPoint x="140" y="200" as="sourcePoint" />
            <mxPoint x="360" y="199" as="targetPoint" />
          </mxGeometry>
        </mxCell>
        <mxCell id="SSxGndYgmpB247sRVXLQ-16" value="&lt;font style=&quot;font-size: 14px;&quot;&gt;1:n&lt;/font&gt;" style="text;html=1;align=center;verticalAlign=middle;whiteSpace=wrap;rounded=0;" parent="1" vertex="1">
          <mxGeometry x="220" y="170" width="60" height="30" as="geometry" />
        </mxCell>
        <mxCell id="SSxGndYgmpB247sRVXLQ-17" value="&lt;font style=&quot;font-size: 14px;&quot;&gt;has - A&lt;/font&gt;" style="text;html=1;align=center;verticalAlign=middle;whiteSpace=wrap;rounded=0;" parent="1" vertex="1">
          <mxGeometry x="210" y="200" width="60" height="30" as="geometry" />
        </mxCell>
        <mxCell id="SSxGndYgmpB247sRVXLQ-18" value="&lt;font style=&quot;font-size: 14px;&quot;&gt;CARIVM&lt;/font&gt;" style="rounded=0;whiteSpace=wrap;html=1;" parent="1" vertex="1">
          <mxGeometry x="-85" y="400" width="120" height="60" as="geometry" />
        </mxCell>
        <mxCell id="SSxGndYgmpB247sRVXLQ-19" value="&lt;span style=&quot;font-size: 14px;&quot;&gt;BIKEIVM&lt;/span&gt;" style="rounded=0;whiteSpace=wrap;html=1;" parent="1" vertex="1">
          <mxGeometry x="85" y="400" width="120" height="60" as="geometry" />
        </mxCell>
        <mxCell id="SSxGndYgmpB247sRVXLQ-20" value="" style="shape=flexArrow;endArrow=classic;html=1;rounded=0;" parent="1" edge="1">
          <mxGeometry width="50" height="50" relative="1" as="geometry">
            <mxPoint x="-30" y="390" as="sourcePoint" />
            <mxPoint x="10" y="340" as="targetPoint" />
          </mxGeometry>
        </mxCell>
        <mxCell id="SSxGndYgmpB247sRVXLQ-21" value="" style="shape=flexArrow;endArrow=classic;html=1;rounded=0;" parent="1" edge="1">
          <mxGeometry width="50" height="50" relative="1" as="geometry">
            <mxPoint x="150" y="390" as="sourcePoint" />
            <mxPoint x="80" y="340" as="targetPoint" />
          </mxGeometry>
        </mxCell>
        <mxCell id="SSxGndYgmpB247sRVXLQ-22" value="" style="rounded=0;whiteSpace=wrap;html=1;" parent="1" vertex="1">
          <mxGeometry x="-350" y="180" width="180" height="140" as="geometry" />
        </mxCell>
        <mxCell id="SSxGndYgmpB247sRVXLQ-23" value="&lt;font style=&quot;font-size: 14px;&quot;&gt;int storeId;&lt;/font&gt;&lt;div&gt;&lt;font size=&quot;3&quot;&gt;VIM vim;&lt;/font&gt;&lt;/div&gt;&lt;div&gt;&lt;font size=&quot;3&quot;&gt;Loaction loc;&lt;/font&gt;&lt;/div&gt;&lt;div&gt;&lt;font size=&quot;3&quot;&gt;List&amp;lt;Reservation&amp;gt; list;&lt;/font&gt;&lt;/div&gt;" style="text;html=1;align=center;verticalAlign=middle;whiteSpace=wrap;rounded=0;" parent="1" vertex="1">
          <mxGeometry x="-340" y="190" width="170" height="80" as="geometry" />
        </mxCell>
        <mxCell id="SSxGndYgmpB247sRVXLQ-24" value="&lt;font style=&quot;font-size: 14px;&quot;&gt;Store&lt;/font&gt;" style="text;html=1;align=center;verticalAlign=middle;whiteSpace=wrap;rounded=0;" parent="1" vertex="1">
          <mxGeometry x="-290" y="140" width="60" height="30" as="geometry" />
        </mxCell>
        <mxCell id="SSxGndYgmpB247sRVXLQ-25" value="" style="endArrow=classic;html=1;rounded=0;exitX=1.006;exitY=0.125;exitDx=0;exitDy=0;exitPerimeter=0;entryX=0.006;entryY=0.133;entryDx=0;entryDy=0;entryPerimeter=0;" parent="1" source="SSxGndYgmpB247sRVXLQ-23" target="SSxGndYgmpB247sRVXLQ-11" edge="1">
          <mxGeometry width="50" height="50" relative="1" as="geometry">
            <mxPoint x="-10" y="430" as="sourcePoint" />
            <mxPoint x="40" y="380" as="targetPoint" />
          </mxGeometry>
        </mxCell>
        <mxCell id="SSxGndYgmpB247sRVXLQ-26" value="" style="rounded=0;whiteSpace=wrap;html=1;" parent="1" vertex="1">
          <mxGeometry x="-630" y="180" width="180" height="80" as="geometry" />
        </mxCell>
        <mxCell id="SSxGndYgmpB247sRVXLQ-27" value="&lt;span style=&quot;font-size: 14px;&quot;&gt;String address;&lt;/span&gt;&lt;div&gt;&lt;span style=&quot;font-size: 14px;&quot;&gt;String city;&lt;/span&gt;&lt;/div&gt;&lt;div&gt;&lt;span style=&quot;font-size: 14px;&quot;&gt;int pinCode;&lt;/span&gt;&lt;/div&gt;" style="text;html=1;align=center;verticalAlign=middle;whiteSpace=wrap;rounded=0;" parent="1" vertex="1">
          <mxGeometry x="-620" y="180" width="170" height="80" as="geometry" />
        </mxCell>
        <mxCell id="SSxGndYgmpB247sRVXLQ-28" value="&lt;span style=&quot;font-size: 14px;&quot;&gt;Location&lt;/span&gt;" style="text;html=1;align=center;verticalAlign=middle;whiteSpace=wrap;rounded=0;" parent="1" vertex="1">
          <mxGeometry x="-580" y="140" width="60" height="30" as="geometry" />
        </mxCell>
        <mxCell id="SSxGndYgmpB247sRVXLQ-29" value="" style="endArrow=classic;html=1;rounded=0;exitX=0;exitY=0.143;exitDx=0;exitDy=0;exitPerimeter=0;entryX=1;entryY=0.25;entryDx=0;entryDy=0;" parent="1" source="SSxGndYgmpB247sRVXLQ-22" target="SSxGndYgmpB247sRVXLQ-27" edge="1">
          <mxGeometry width="50" height="50" relative="1" as="geometry">
            <mxPoint x="-140" y="430" as="sourcePoint" />
            <mxPoint x="-90" y="380" as="targetPoint" />
          </mxGeometry>
        </mxCell>
        <mxCell id="SSxGndYgmpB247sRVXLQ-30" value="" style="rounded=0;whiteSpace=wrap;html=1;" parent="1" vertex="1">
          <mxGeometry x="-30" y="-40" width="190" height="130" as="geometry" />
        </mxCell>
        <mxCell id="SSxGndYgmpB247sRVXLQ-31" value="&lt;font style=&quot;font-size: 14px;&quot;&gt;int resId;&lt;/font&gt;&lt;div&gt;&lt;font size=&quot;3&quot;&gt;User user;&lt;/font&gt;&lt;/div&gt;&lt;div&gt;&lt;font size=&quot;3&quot;&gt;Vehcile vehicle;&lt;/font&gt;&lt;/div&gt;&lt;div&gt;&lt;font size=&quot;3&quot;&gt;Date bookedDate;&lt;/font&gt;&lt;/div&gt;&lt;div&gt;&lt;font size=&quot;3&quot;&gt;ReservationStatus status;&lt;/font&gt;&lt;/div&gt;" style="text;html=1;align=center;verticalAlign=middle;whiteSpace=wrap;rounded=0;" parent="1" vertex="1">
          <mxGeometry x="-37.5" y="-30" width="205" height="80" as="geometry" />
        </mxCell>
        <mxCell id="SSxGndYgmpB247sRVXLQ-32" value="&lt;span style=&quot;font-size: 14px;&quot;&gt;Reservation&lt;/span&gt;" style="text;html=1;align=center;verticalAlign=middle;whiteSpace=wrap;rounded=0;" parent="1" vertex="1">
          <mxGeometry x="20" y="-80" width="60" height="30" as="geometry" />
        </mxCell>
        <mxCell id="SSxGndYgmpB247sRVXLQ-35" value="" style="edgeStyle=elbowEdgeStyle;elbow=horizontal;endArrow=classic;html=1;curved=0;rounded=0;endSize=8;startSize=8;entryX=-0.017;entryY=0.315;entryDx=0;entryDy=0;entryPerimeter=0;" parent="1" target="SSxGndYgmpB247sRVXLQ-30" edge="1">
          <mxGeometry width="50" height="50" relative="1" as="geometry">
            <mxPoint x="-250" y="150" as="sourcePoint" />
            <mxPoint x="-90" y="80" as="targetPoint" />
            <Array as="points">
              <mxPoint x="-250" y="30" />
            </Array>
          </mxGeometry>
        </mxCell>
        <mxCell id="SSxGndYgmpB247sRVXLQ-36" value="&lt;font style=&quot;font-size: 14px;&quot;&gt;enum ReservationStatus {&lt;/font&gt;&lt;div&gt;&lt;font size=&quot;3&quot;&gt;COMPLETED,&lt;/font&gt;&lt;/div&gt;&lt;div&gt;&lt;font size=&quot;3&quot;&gt;CLOSED,&lt;/font&gt;&lt;/div&gt;&lt;div&gt;&lt;font size=&quot;3&quot;&gt;SCHEDULED;&lt;/font&gt;&lt;/div&gt;&lt;div&gt;&lt;font size=&quot;3&quot;&gt;}&lt;/font&gt;&lt;/div&gt;" style="text;html=1;align=center;verticalAlign=middle;whiteSpace=wrap;rounded=0;" parent="1" vertex="1">
          <mxGeometry x="-37.5" y="-200" width="190" height="90" as="geometry" />
        </mxCell>
        <mxCell id="SSxGndYgmpB247sRVXLQ-38" value="" style="edgeStyle=segmentEdgeStyle;endArrow=classic;html=1;curved=0;rounded=0;endSize=8;startSize=8;entryX=0.5;entryY=0;entryDx=0;entryDy=0;" parent="1" target="SSxGndYgmpB247sRVXLQ-3" edge="1">
          <mxGeometry width="50" height="50" relative="1" as="geometry">
            <mxPoint x="160" y="10" as="sourcePoint" />
            <mxPoint x="300" y="80" as="targetPoint" />
          </mxGeometry>
        </mxCell>
        <mxCell id="SSxGndYgmpB247sRVXLQ-39" value="" style="rounded=0;whiteSpace=wrap;html=1;" parent="1" vertex="1">
          <mxGeometry x="-390" y="-300" width="180" height="130" as="geometry" />
        </mxCell>
        <mxCell id="SSxGndYgmpB247sRVXLQ-40" value="&lt;font style=&quot;font-size: 14px;&quot;&gt;int userId;&lt;/font&gt;&lt;div&gt;&lt;font size=&quot;3&quot;&gt;String drivLicense;&lt;/font&gt;&lt;/div&gt;&lt;div&gt;&lt;font size=&quot;3&quot;&gt;String userName;&lt;/font&gt;&lt;span style=&quot;background-color: transparent; color: light-dark(rgb(0, 0, 0), rgb(255, 255, 255)); font-size: medium;&quot;&gt;;&lt;/span&gt;&lt;/div&gt;" style="text;html=1;align=center;verticalAlign=middle;whiteSpace=wrap;rounded=0;" parent="1" vertex="1">
          <mxGeometry x="-380" y="-310" width="170" height="80" as="geometry" />
        </mxCell>
        <mxCell id="SSxGndYgmpB247sRVXLQ-41" value="&lt;span style=&quot;font-size: 14px;&quot;&gt;USER&lt;/span&gt;" style="text;html=1;align=center;verticalAlign=middle;whiteSpace=wrap;rounded=0;" parent="1" vertex="1">
          <mxGeometry x="-325" y="-340" width="60" height="30" as="geometry" />
        </mxCell>
        <mxCell id="SSxGndYgmpB247sRVXLQ-43" value="" style="edgeStyle=elbowEdgeStyle;elbow=horizontal;endArrow=classic;html=1;curved=0;rounded=0;endSize=8;startSize=8;entryX=1;entryY=0.25;entryDx=0;entryDy=0;exitX=0.037;exitY=0;exitDx=0;exitDy=0;exitPerimeter=0;" parent="1" source="SSxGndYgmpB247sRVXLQ-31" target="SSxGndYgmpB247sRVXLQ-40" edge="1">
          <mxGeometry width="50" height="50" relative="1" as="geometry">
            <mxPoint x="10" y="130" as="sourcePoint" />
            <mxPoint x="60" y="80" as="targetPoint" />
          </mxGeometry>
        </mxCell>
        <mxCell id="SSxGndYgmpB247sRVXLQ-45" value="" style="endArrow=none;html=1;rounded=0;exitX=0;exitY=0.5;exitDx=0;exitDy=0;entryX=1;entryY=0.5;entryDx=0;entryDy=0;" parent="1" source="SSxGndYgmpB247sRVXLQ-39" target="SSxGndYgmpB247sRVXLQ-39" edge="1">
          <mxGeometry width="50" height="50" relative="1" as="geometry">
            <mxPoint x="-10" y="-30" as="sourcePoint" />
            <mxPoint x="40" y="-80" as="targetPoint" />
          </mxGeometry>
        </mxCell>
        <mxCell id="SSxGndYgmpB247sRVXLQ-47" value="&lt;span style=&quot;font-size: 14px;&quot;&gt;// CRUD Operations&lt;/span&gt;" style="text;html=1;align=center;verticalAlign=middle;whiteSpace=wrap;rounded=0;" parent="1" vertex="1">
          <mxGeometry x="-370" y="-220" width="150" height="30" as="geometry" />
        </mxCell>
        <mxCell id="SSxGndYgmpB247sRVXLQ-48" value="" style="rounded=0;whiteSpace=wrap;html=1;" parent="1" vertex="1">
          <mxGeometry x="-700" y="-230" width="170" height="150" as="geometry" />
        </mxCell>
        <mxCell id="SSxGndYgmpB247sRVXLQ-49" value="&lt;div&gt;&lt;span style=&quot;font-size: medium; background-color: transparent; color: light-dark(rgb(0, 0, 0), rgb(255, 255, 255));&quot;&gt;List&amp;lt;Stores&amp;gt; list;&lt;/span&gt;&lt;font size=&quot;3&quot;&gt;;&lt;/font&gt;&lt;/div&gt;&lt;div&gt;&lt;font size=&quot;3&quot;&gt;List&amp;lt;User&amp;gt; list;&lt;/font&gt;&lt;/div&gt;" style="text;html=1;align=center;verticalAlign=middle;whiteSpace=wrap;rounded=0;" parent="1" vertex="1">
          <mxGeometry x="-700" y="-230" width="170" height="80" as="geometry" />
        </mxCell>
        <mxCell id="SSxGndYgmpB247sRVXLQ-51" value="" style="endArrow=none;html=1;rounded=0;exitX=0;exitY=0.881;exitDx=0;exitDy=0;entryX=1.006;entryY=0.894;entryDx=0;entryDy=0;entryPerimeter=0;exitPerimeter=0;" parent="1" source="SSxGndYgmpB247sRVXLQ-49" target="SSxGndYgmpB247sRVXLQ-49" edge="1">
          <mxGeometry width="50" height="50" relative="1" as="geometry">
            <mxPoint x="-430" y="10" as="sourcePoint" />
            <mxPoint x="-380" y="-40" as="targetPoint" />
          </mxGeometry>
        </mxCell>
        <mxCell id="SSxGndYgmpB247sRVXLQ-52" value="&lt;span style=&quot;font-size: 14px;&quot;&gt;// CRUD Operations&lt;/span&gt;" style="text;html=1;align=center;verticalAlign=middle;whiteSpace=wrap;rounded=0;" parent="1" vertex="1">
          <mxGeometry x="-690" y="-140" width="150" height="30" as="geometry" />
        </mxCell>
        <mxCell id="SSxGndYgmpB247sRVXLQ-53" value="&lt;span style=&quot;font-size: 14px;&quot;&gt;Vehcile Rental Syatem&lt;/span&gt;" style="text;html=1;align=center;verticalAlign=middle;whiteSpace=wrap;rounded=0;" parent="1" vertex="1">
          <mxGeometry x="-700" y="-260" width="170" height="30" as="geometry" />
        </mxCell>
        <mxCell id="SSxGndYgmpB247sRVXLQ-55" value="" style="edgeStyle=elbowEdgeStyle;elbow=horizontal;endArrow=classic;html=1;curved=0;rounded=0;endSize=8;startSize=8;entryX=-0.017;entryY=0.142;entryDx=0;entryDy=0;entryPerimeter=0;exitX=1.006;exitY=0.381;exitDx=0;exitDy=0;exitPerimeter=0;" parent="1" source="SSxGndYgmpB247sRVXLQ-49" target="SSxGndYgmpB247sRVXLQ-39" edge="1">
          <mxGeometry width="50" height="50" relative="1" as="geometry">
            <mxPoint x="-430" y="10" as="sourcePoint" />
            <mxPoint x="-380" y="-40" as="targetPoint" />
          </mxGeometry>
        </mxCell>
        <mxCell id="SSxGndYgmpB247sRVXLQ-56" value="" style="edgeStyle=elbowEdgeStyle;elbow=horizontal;endArrow=classic;html=1;curved=0;rounded=0;endSize=8;startSize=8;entryX=1.006;entryY=0.881;entryDx=0;entryDy=0;entryPerimeter=0;exitX=0.167;exitY=0;exitDx=0;exitDy=0;exitPerimeter=0;" parent="1" source="SSxGndYgmpB247sRVXLQ-22" target="SSxGndYgmpB247sRVXLQ-49" edge="1">
          <mxGeometry width="50" height="50" relative="1" as="geometry">
            <mxPoint x="-320" y="60" as="sourcePoint" />
            <mxPoint x="-380" y="-40" as="targetPoint" />
            <Array as="points">
              <mxPoint x="-320" y="10" />
            </Array>
          </mxGeometry>
        </mxCell>
        <mxCell id="SSxGndYgmpB247sRVXLQ-57" value="" style="rounded=0;whiteSpace=wrap;html=1;" parent="1" vertex="1">
          <mxGeometry x="510" y="-140" width="150" height="120" as="geometry" />
        </mxCell>
        <mxCell id="SSxGndYgmpB247sRVXLQ-58" value="&lt;br&gt;&lt;div&gt;&lt;font size=&quot;3&quot;&gt;Reservation res;&lt;/font&gt;&lt;/div&gt;&lt;div&gt;&lt;font size=&quot;3&quot;&gt;boolean isPaid;&lt;/font&gt;&lt;/div&gt;&lt;div&gt;&lt;font size=&quot;3&quot;&gt;double amount;&lt;/font&gt;&lt;/div&gt;" style="text;html=1;align=center;verticalAlign=middle;whiteSpace=wrap;rounded=0;" parent="1" vertex="1">
          <mxGeometry x="500" y="-125" width="170" height="80" as="geometry" />
        </mxCell>
        <mxCell id="SSxGndYgmpB247sRVXLQ-59" value="&lt;span style=&quot;font-size: 14px;&quot;&gt;Bill&lt;/span&gt;" style="text;html=1;align=center;verticalAlign=middle;whiteSpace=wrap;rounded=0;" parent="1" vertex="1">
          <mxGeometry x="550" y="-170" width="60" height="30" as="geometry" />
        </mxCell>
        <mxCell id="SSxGndYgmpB247sRVXLQ-60" value="" style="rounded=0;whiteSpace=wrap;html=1;" parent="1" vertex="1">
          <mxGeometry x="760" y="-140" width="150" height="120" as="geometry" />
        </mxCell>
        <mxCell id="SSxGndYgmpB247sRVXLQ-61" value="&lt;br&gt;&lt;div&gt;&lt;font size=&quot;3&quot;&gt;Bill bill;&lt;/font&gt;&lt;/div&gt;&lt;div&gt;&lt;font size=&quot;3&quot;&gt;payBill();&lt;/font&gt;&lt;/div&gt;" style="text;html=1;align=center;verticalAlign=middle;whiteSpace=wrap;rounded=0;" parent="1" vertex="1">
          <mxGeometry x="785" y="-130" width="100" height="80" as="geometry" />
        </mxCell>
        <mxCell id="SSxGndYgmpB247sRVXLQ-62" value="&lt;span style=&quot;font-size: 14px;&quot;&gt;Payment&lt;/span&gt;" style="text;html=1;align=center;verticalAlign=middle;whiteSpace=wrap;rounded=0;" parent="1" vertex="1">
          <mxGeometry x="800" y="-170" width="60" height="30" as="geometry" />
        </mxCell>
        <mxCell id="SSxGndYgmpB247sRVXLQ-63" value="" style="endArrow=classic;html=1;rounded=0;exitX=0;exitY=0.5;exitDx=0;exitDy=0;" parent="1" source="SSxGndYgmpB247sRVXLQ-60" edge="1">
          <mxGeometry width="50" height="50" relative="1" as="geometry">
            <mxPoint x="350" y="10" as="sourcePoint" />
            <mxPoint x="660" y="-80" as="targetPoint" />
          </mxGeometry>
        </mxCell>
        <mxCell id="SSxGndYgmpB247sRVXLQ-64" value="" style="edgeStyle=elbowEdgeStyle;elbow=horizontal;endArrow=classic;html=1;curved=0;rounded=0;endSize=8;startSize=8;entryX=0.059;entryY=0.563;entryDx=0;entryDy=0;exitX=0.963;exitY=0.125;exitDx=0;exitDy=0;exitPerimeter=0;entryPerimeter=0;" parent="1" source="SSxGndYgmpB247sRVXLQ-31" target="SSxGndYgmpB247sRVXLQ-58" edge="1">
          <mxGeometry width="50" height="50" relative="1" as="geometry">
            <mxPoint x="350" y="10" as="sourcePoint" />
            <mxPoint x="400" y="-40" as="targetPoint" />
          </mxGeometry>
        </mxCell>
      </root>
    </mxGraphModel>
  </diagram>
</mxfile>
